<svg width="20" height="20" viewBox="0 0 24 24" fill="none" xmlns="http://www.w3.org/2000/svg">
<path d="M18.36 19.5H5.64V12H18.36V19.5ZM18.36 9.75H5.64L4.5 5.25H19.5L18.36 9.75ZM6.42 21H17.58C18.3811 21 19.0837 20.4872 19.3464 19.7336L19.8514 18.2186V11.25H21V9.45859C21 8.82862 20.6094 8.25984 20.02 8.03L18.31 7.37V4.5C18.31 4.08579 17.9742 3.75 17.56 3.75H6.44C6.02579 3.75 5.69 4.08579 5.69 4.5V7.37L3.98 8.03C3.39063 8.25984 3 8.82862 3 9.45859V11.25H4.14863L4.65363 19.7336C4.9163 20.4872 5.61891 21 6.42 21Z" fill="#888888"/>
</svg>
